<svg xmlns="http://www.w3.org/2000/svg" xmlns:xlink="http://www.w3.org/1999/xlink" width="375" height="176" viewBox="0 0 375 176"><defs><style>.a{fill:none;}.b{clip-path:url(#a);}.c{fill:url(#b);}.d{opacity:0.5;}.e{fill:url(#c);}.f{fill:url(#d);}.g{fill:#f8f8f8;}.h{fill:url(#i);}.i{fill:url(#j);}.j{fill:#fff;}</style><clipPath id="a"><rect class="a" width="375" height="176" transform="translate(98 828.401)"/></clipPath><linearGradient id="b" x1="0.5" y1="0.644" x2="0.5" y2="-0.21" gradientUnits="objectBoundingBox"><stop offset="0.012" stop-color="#fff"/><stop offset="0.53" stop-color="#fbfcfc"/><stop offset="0.93" stop-color="#f2f3f5"/><stop offset="0.964" stop-color="#f1f2f5"/></linearGradient><linearGradient id="c" x1="0.593" y1="1.039" x2="0.424" y2="0.061" gradientUnits="objectBoundingBox"><stop offset="0" stop-color="#fbcece"/><stop offset="1" stop-color="#ef4e4e"/></linearGradient><linearGradient id="d" x1="0.442" y1="0.065" x2="0.5" y2="1" xlink:href="#c"/><linearGradient id="i" x1="0.28" y1="0.07" x2="0.729" y2="0.948" gradientUnits="objectBoundingBox"><stop offset="0" stop-color="#ef4e4e"/><stop offset="0.989" stop-color="#cd2727"/></linearGradient><linearGradient id="j" x1="0.15" y1="0.074" x2="0.569" y2="0.562" xlink:href="#i"/></defs><g transform="translate(-98 -828.401)"><g class="b"><ellipse class="c" cx="187.241" cy="58" rx="187.241" ry="58" transform="translate(98.259 939)"/><g class="d"><rect class="e" width="3" height="6" transform="translate(378.839 959.087)"/><path class="f" d="M380.339,938.087l-5,23h10Z"/></g><g class="d"><rect class="e" width="2.556" height="5.111" transform="translate(194.58 954.889)"/><path class="f" d="M195.858,937,191.6,956.593h8.519Z"/></g><g class="d"><rect class="e" width="1.449" height="2.898" transform="translate(350.67 940.144)"/><path class="f" d="M351.395,930l-2.415,11.11h4.83Z"/></g><ellipse class="g" cx="43" cy="4" rx="43" ry="4" transform="translate(241 978)"/><circle class="h" cx="50" cy="50" r="50" transform="translate(234 862)"/><path class="i" d="M311.057,887.675c-2.588-1.089-5.1.211-7.254,1.61a88.059,88.059,0,0,0-7.25,5.2A153.056,153.056,0,0,0,282.82,907.13q-1.914,1.971-3.752,4.029A108.389,108.389,0,0,1,267.3,897.325c-3.23-4.425-6.156,2.049-5.5,5.12,1.438,6.691,5.091,12.807,9.574,18.154-.278.375-.558.75-.831,1.128a54.5,54.5,0,0,0-4.044,6.489,35.394,35.394,0,0,0-1.765,3.776,16.28,16.28,0,0,0-.678,2.145,12.784,12.784,0,0,0-.245,2.147c-.2,1.908.04,4.54,1.715,5.839,1.529,1.185,3.066.505,4.121-.916-.64.863.688-.634.812-.812.259-.372.476-.816.713-1.2.55-.9,1.118-1.8,1.707-2.676,1.27-1.892,2.672-3.715,4.1-5.485.687-.849,1.4-1.685,2.125-2.516a87.905,87.905,0,0,0,10.778,8.265c3.481,2.254,9.339,6.733,13.263,3.244,2.351-2.091,2.3-6.175,1.3-8.854-1.69-4.528-6.79-6.2-10.639-8.507-1.893-1.138-3.728-2.386-5.514-3.7l.128-.126A160.044,160.044,0,0,1,301.506,907.4c2-1.566,4.011-3.128,6.1-4.58,1.658-1.152,4.251-2.906,5.4-5.308C314.418,894.58,314.761,889.234,311.057,887.675Z"/><path class="j" d="M308.557,886.613c-2.4-1.012-4.733.2-6.739,1.5a81.631,81.631,0,0,0-6.736,4.834,142.344,142.344,0,0,0-12.759,11.745q-1.779,1.832-3.486,3.743A100.666,100.666,0,0,1,267.9,895.578c-3-4.111-5.719,1.9-5.107,4.757,1.336,6.217,4.73,11.9,8.895,16.867-.258.349-.518.7-.772,1.048a50.534,50.534,0,0,0-3.756,6.029,32.8,32.8,0,0,0-1.641,3.508,15.266,15.266,0,0,0-.63,1.993,12.031,12.031,0,0,0-.227,1.994c-.186,1.773.037,4.219,1.593,5.425,1.42,1.1,2.849.47,3.829-.85-.6.8.639-.59.754-.755.241-.345.443-.758.662-1.118.512-.837,1.04-1.671,1.587-2.486,1.18-1.757,2.482-3.451,3.814-5.1.638-.788,1.3-1.566,1.974-2.337a81.525,81.525,0,0,0,10.014,7.678c3.234,2.1,8.676,6.256,12.322,3.014,2.184-1.942,2.138-5.737,1.209-8.226-1.571-4.207-6.309-5.755-9.884-7.9-1.76-1.057-3.464-2.216-5.124-3.435l.119-.117a148.559,148.559,0,0,1,12.151-10.631c1.863-1.454,3.727-2.906,5.668-4.255,1.54-1.07,3.95-2.7,5.021-4.931C311.68,893.028,312,888.061,308.557,886.613Z"/></g></g></svg>