<svg xmlns="http://www.w3.org/2000/svg" xmlns:xlink="http://www.w3.org/1999/xlink" width="375" height="176" viewBox="0 0 375 176"><defs><style>.a{fill:none;}.b{clip-path:url(#a);}.c{fill:url(#b);}.d{opacity:0.5;}.e{fill:url(#c);}.f{fill:url(#d);}.g{fill:#f8f8f8;}.h{fill:url(#i);}.i{fill:url(#j);}.j{fill:#f9fafc;}</style><clipPath id="a"><rect class="a" width="375" height="176" transform="translate(99.5 451.401)"/></clipPath><linearGradient id="b" x1="0.5" y1="0.644" x2="0.5" y2="-0.21" gradientUnits="objectBoundingBox"><stop offset="0.012" stop-color="#fff"/><stop offset="0.53" stop-color="#fbfcfc"/><stop offset="0.93" stop-color="#f2f3f5"/><stop offset="0.964" stop-color="#f1f2f5"/></linearGradient><linearGradient id="c" x1="0.593" y1="1.039" x2="0.424" y2="0.061" gradientUnits="objectBoundingBox"><stop offset="0" stop-color="#a2d8c2"/><stop offset="1" stop-color="#2ba774"/></linearGradient><linearGradient id="d" x1="0.442" y1="0.065" x2="0.5" y2="1" xlink:href="#c"/><linearGradient id="i" x1="0.28" y1="0.07" x2="0.729" y2="0.948" gradientUnits="objectBoundingBox"><stop offset="0" stop-color="#2ba774"/><stop offset="0.989" stop-color="#188659"/></linearGradient><linearGradient id="j" x1="0.433" y1="0.155" x2="0.644" y2="0.713" xlink:href="#i"/></defs><g transform="translate(-99.5 -451.401)"><g class="b"><ellipse class="c" cx="187.241" cy="58" rx="187.241" ry="58" transform="translate(98.259 561)"/><g class="d"><rect class="e" width="3" height="6" transform="translate(378.839 581.087)"/><path class="f" d="M380.339,560.087l-5,23h10Z"/></g><g class="d"><rect class="e" width="2.556" height="5.111" transform="translate(194.58 576.889)"/><path class="f" d="M195.858,559,191.6,578.593h8.519Z"/></g><g class="d"><rect class="e" width="1.449" height="2.898" transform="translate(350.67 562.144)"/><path class="f" d="M351.395,552l-2.415,11.11h4.83Z"/></g><ellipse class="g" cx="43" cy="4" rx="43" ry="4" transform="translate(241 600)"/><circle class="h" cx="50" cy="50" r="50" transform="translate(234 484)"/><path class="i" d="M315.769,515.907a5.014,5.014,0,0,0-1.47-2.406,3.49,3.49,0,0,0-2.08-.833c-2.736-.187-4.982,1.228-7.08,2.53a79.852,79.852,0,0,0-17.083,14.613,74.922,74.922,0,0,0-11.968,18.025q-1.622-1.774-3.247-3.546a84.366,84.366,0,0,0-7.049-7.394,3.217,3.217,0,0,0-4.7.835c-3.4,5,2.2,9.936,5.331,13.824q3.78,4.692,7.549,9.39c2.161,2.707,5.725,2.244,7.061-.85A72.629,72.629,0,0,1,294.4,539.128a68.6,68.6,0,0,1,9.054-8.535c2.806-2.23,5.862-4.205,8.674-6.429C314.648,522.173,316.612,518.987,315.769,515.907Z"/><path class="j" d="M313.667,513.636a4.826,4.826,0,0,0-1.416-2.319,3.36,3.36,0,0,0-2-.8c-2.636-.181-4.8,1.183-6.822,2.437a76.963,76.963,0,0,0-16.46,14.08A72.23,72.23,0,0,0,275.433,544.4q-1.563-1.709-3.129-3.417a81.246,81.246,0,0,0-6.792-7.124,3.1,3.1,0,0,0-4.524.8c-3.277,4.818,2.12,9.575,5.137,13.32q3.642,4.523,7.274,9.049c2.082,2.608,5.516,2.162,6.8-.82a70.022,70.022,0,0,1,12.878-20.2,66.169,66.169,0,0,1,8.725-8.223c2.7-2.149,5.648-4.051,8.357-6.2C312.587,519.673,314.479,516.6,313.667,513.636Z"/></g></g></svg>